PathFileType	4	(X/Y/Z)	C:/Users/beibeiliu/ov580/test_trc/User1\sequence.12_training_dense_right.trc
DataRate	CameraRate	NumFrames	NumMarkers	Units	OrigDataRate	OrigDataStartFrame	OrigNumFrames
120	120	22	19	mm	120	229	304
Frame#	Time	ThumbCMC			ThumbMCP			ThumbIP			ThumbTip			IndexMCP			IndexPIP			IndexTip			MiddleMCP			MiddlePIP			MiddleTip			RingMCP			RingPIP			RingTip			PinkyMCP			PinkyPIP			PinkyTip			BackHand1			BackHand2			BackHand3	
		X0	Y0	Z0	X1	Y1	Z1	X2	Y2	Z2	X3	Y3	Z3	X4	Y4	Z4	X5	Y5	Z5	X6	Y6	Z6	X7	Y7	Z7	X8	Y8	Z8	X9	Y9	Z9	X10	Y10	Z10	X11	Y11	Z11	X12	Y12	Z12	X13	Y13	Z13	X14	Y14	Z14	X15	Y15	Z15	X16	Y16	Z16	X17	Y17	Z17	X18	Y18	Z18	
228	1.9	114.3	45.1966	36.7949	98.9658	17.1508	37.475	95.07	-8.96302	25.5368	88.8394	-34.1723	21.9786	142.429	15.7608	-35.5158	142.158	-2.71126	-58.5004	141.299	-35.0345	-69.9001	178.084	17.6408	-37.4894	183.66	-4.5914	-61.9359	187.798	-36.6894	-73.7174	196.119	12.8961	-24.8305	208.884	-13.9817	-44.1054	209.886	-43.9189	-48.1396	217.216	4.32248	8.86551	223.286	-15.2043	2.7946	227.866	-41.7291	-7.84508	185.37	52.0359	12.9655	181.361	73.4618	37.3797	148.503	62.6878	15.3322	
229	1.90833	114.77	51.2123	38.7885	100.532	22.3498	38.4833	91.619	-3.3989	26.9848	86.6389	-27.1511	24.5468	140.131	19.8006	-36.5493	140.629	0.476091	-58.7035	143.258	-32.1962	-70.7018	171.916	19.7579	-38.7695	183.372	-5.27181	-63.682	186.433	-36.2768	-72.8701	195.697	12.937	-28.8053	205.552	-12.2614	-44.8289	209.018	-37.1861	-47.3634	216.115	2.69267	6.03384	218.589	-18.4718	-0.329441	224.661	-42.0488	-6.62171	187.451	51.3738	10.2334	181.405	77.6063	38.3759	148.595	67.4815	16.0296	
230	1.91667	119.218	53.3596	35.6738	101.897	22.8438	33.9109	92.4051	0.213514	25.5953	88.1298	-25.5723	17.8859	137.475	25.4795	-38.0241	139.965	6.93894	-59.3249	138.428	-20.0457	-73.0792	174.643	24.8539	-39.6082	179.634	1.5114	-66.5516	183.479	-26.0187	-76.2537	192.57	18.0662	-28.1667	204.246	-8.06996	-47.2676	204.871	-36.2541	-53.2986	213.137	5.66615	2.27743	219.652	-15.4368	-1.56298	222.091	-35.1628	-8.99924	187.759	56.757	13.0116	185.724	79.8791	38.5377	148.671	70.3001	17.6315	
231	1.925	115.271	58.3912	35.4012	98.6114	27.2528	30.1013	88.3997	5.91347	20.8363	86.9261	-19.2958	11.7332	135.538	34.4318	-41.5663	135.471	14.7683	-68.2114	139.309	-11.0307	-81.3926	175.57	31.828	-43.2344	180.455	11.0472	-71.0929	186.076	-15.3182	-82.5132	192.587	24.6559	-31.6499	201.877	3.96065	-51.6774	206.712	-23.6744	-58.5228	214.48	12.9424	1.18364	219.63	-11.06	-6.50434	220.765	-30.8528	-19.4291	186.135	60.5188	10.4081	186.008	81.1434	34.8707	153.116	74.2605	14.809	
232	1.93333	120.127	62.6576	35.339	103.016	31.838	27.855	90.5957	8.7509	11.6817	84.2661	-15.2865	4.15991	138.942	43.1503	-47.4494	138.147	26.4688	-71.875	138.635	3.6943	-87.3909	176.453	40.7955	-49.687	180.853	25.6992	-74.4354	185.881	-6.57968	-93.4861	197.502	32.3382	-36.3414	201.43	10.9715	-60.8518	202.574	-14.6808	-70.4228	212.18	16.4448	-7.64153	217.272	-5.76908	-17.2016	217.568	-23.4615	-27.6918	189.5	61.8512	6.99013	188.897	83.0113	39.7556	150.298	79.9905	16.3949	
233	1.94167	119.151	64.873	32.7064	99.7653	35.4114	22.7009	89.2019	13.6286	5.05276	80.8002	-8.36642	-1.69929	137.047	54.0857	-46.7529	135.87	40.3057	-78.2908	135.528	18.4164	-91.8647	170.93	53.6205	-51.8517	177.575	38.9533	-80.2173	180.863	10.2956	-102.258	194.266	42.4114	-39.7644	202.844	25.1213	-64.1906	202.733	-2.94749	-78.7635	210.027	23.0057	-10.9317	216.671	-0.628633	-25.2141	217.88	-18.3338	-37.2489	188.497	68.0822	9.13385	186.835	83.8676	34.674	154.771	82.7585	15.8876	
234	1.95	118.674	65.4282	31.6104	101.097	36.5864	16.2702	87.6318	17.0711	-0.374287	83.5184	-3.64102	-12.2159	138.949	63.5381	-53.2916	136.24	52.4537	-81.1823	128.642	29.366	-99.0591	172.353	62.4441	-52.0958	176.295	53.2618	-83.1718	178.478	24.6257	-107.674	191.764	51.7865	-43.4504	200.494	37.6043	-70.5826	196.204	8.63793	-88.6553	211.018	26.2535	-17.7749	212.417	10.2485	-33.9886	211.803	-9.48294	-49.9943	187.409	70.7198	4.67083	186.558	83.4316	34.7833	154.301	83.9174	14.4078	
235	1.95833	116.964	65.2273	25.5342	98.878	38.6671	15.088	84.7316	19.9446	-4.68787	78.0413	-1.25411	-16.4422	133.46	70.6145	-52.7066	129.833	63.3781	-84.0908	131.115	40.6529	-100.735	169.814	70.4374	-55.4756	175.057	61.2724	-89.3985	175.94	38.1695	-110.129	190.932	56.9019	-44.174	199.334	45.3114	-74.019	195.127	19.644	-90.8211	205.944	33.1021	-24.6559	213.888	10.4497	-40.8666	210.774	-5.56054	-55.9179	182.945	73.6491	3.70476	185.307	83.0485	33.9678	152.698	86.997	12.4745	
236	1.96667	114.81	66.0251	24.7751	97.4764	39.4731	15.1443	86.3767	20.6869	-6.86312	81.0395	-1.29969	-21.8742	135.101	73.2654	-53.3563	127.969	67.6616	-83.6494	123.141	44.1082	-105.347	168.86	72.9593	-56.3226	172.15	67.1768	-88.3607	175.37	38.6419	-114.407	191.416	59.4424	-49.0302	198.338	48.4866	-76.6487	192.514	24.06	-92.6364	206.169	33.5377	-30.6363	209.24	15.9561	-44.7378	206.496	-4.99726	-63.8163	186.541	71.3747	1.8624	183.668	82.1007	36.3327	151.689	86.0064	11.1889	
237	1.975	112.283	64.4179	24.6087	93.5064	36.4413	14.1269	84.9467	18.0072	-4.83606	81.9667	-4.5776	-18.5248	133.236	70.9975	-52.092	130.935	64.2366	-82.3032	125.919	38.6732	-106.474	167.935	72.2708	-59.0377	172.549	63.0845	-90.9856	173.544	36.6507	-114.589	189.391	59.5016	-51.1083	193.811	47.7485	-77.2799	193.7	21.2608	-91.9372	206.033	33.5517	-28.4658	213.337	13.7592	-43.3906	207.672	-4.97346	-60.6189	180.934	74.3674	-0.221652	180.501	84.3215	32.5762	148.937	87.4771	12.6059	
238	1.98333	112.458	63.3169	28.6412	96.1601	33.3502	16.0113	82.1477	12.8632	0.52405	79.9809	-10.423	-11.1732	132.313	63.9507	-53.1407	124.8	57.1817	-81.2335	123.734	31.4351	-101.397	165.718	66.4207	-57.056	173.028	54.1156	-91.1314	173.048	30.9833	-110.469	186.804	55.2183	-48.5489	195.04	40.9027	-75.5301	192.34	9.23719	-90.0784	207.672	29.532	-24.1061	211.356	13.5794	-38.6749	211.914	-7.60778	-57.0721	178.86	73.2023	1.7339	181.698	82.4958	34.2338	145.868	85.0299	10.0954	
239	1.99167	108.532	59.1573	26.1881	96.1279	31.2595	20.5435	83.3615	8.69425	7.91511	81.1365	-17.9366	-6.04945	126.82	56.1564	-50.319	125.973	45.4862	-79.1953	123.347	18.761	-97.4911	164.83	57.872	-55.2385	173.08	46.6866	-85.2963	170.854	18.0914	-107.539	188.286	47.0756	-47.8835	194.723	29.0486	-73.33	193.69	-0.760224	-84.173	206.387	26.8548	-16.7934	211.284	8.5179	-30.9655	217.396	-16.5584	-45.8524	176.659	66.625	-0.399314	176.518	82.4789	30.457	145.002	81.6123	12.3508	
240	2	112.187	57.9702	29.9458	91.151	27.1908	25.1642	84.0271	5.58728	14.6337	78.6883	-20.6512	7.32297	130.114	46.2384	-50.3713	127.842	30.6685	-78.2033	124.434	6.63724	-89.7894	165.723	48.3763	-53.7031	169.927	35.0362	-81.0904	170.597	3.05991	-102.045	186.044	39.2037	-42.1243	192.838	19.4603	-68.3066	192.339	-5.58844	-76.7987	209.349	20.5077	-13.5381	213.173	3.84522	-24.4052	217.083	-19.3559	-35.9402	179.231	65.1823	5.31241	179.587	84.4489	34.7369	144.695	78.9866	10.5021	
241	2.00833	110.442	56.6859	32.1508	91.3753	24.2425	28.9952	84.0384	1.97872	17.7455	82.1186	-24.3289	10.0726	128.052	39.2006	-44.4515	127.012	25.0961	-70.4419	123.613	-1.97272	-84.0232	162.917	41.1943	-49.5859	167.567	25.805	-77.5946	175.597	-3.6876	-92.0632	185.541	33.8631	-38.307	193.897	12.0057	-62.6537	196.493	-14.4684	-68.3671	206.29	19.227	-7.81063	213.412	-0.780651	-17.3502	219.514	-26.8947	-29.136	176.917	64.2099	6.32309	175.152	81.934	34.6485	143.412	75.4185	11.2266	
242	2.01667	109.693	55.275	33.7185	95.0076	24.8289	31.2836	81.9353	0.835936	22.3151	81.3091	-22.041	16.5559	124.619	37.7549	-39.5187	125.318	21.0982	-67.2914	126.791	-6.50286	-81.1826	163.019	37.463	-46.1144	166.178	19.2049	-76.3975	174.414	-7.76539	-88.9072	184.936	30.8187	-33.4327	191.823	9.40599	-59.4524	196.442	-21.889	-66.1664	205.338	18.5946	-4.26526	214.243	-5.07309	-14.7476	217.857	-28.5278	-28.1017	174.345	59.7377	6.39846	176.335	82.1855	36.104	141.651	75.6841	17.2143	
243	2.025	108.165	57.2566	39.4814	92.7653	25.6724	34.2039	83.6606	1.48329	21.2687	77.8302	-23.073	15.4781	126.179	36.865	-44.0249	123.7	21.7826	-67.0062	124.682	-4.36078	-81.4857	162.145	38.1388	-43.7925	168.487	22.0636	-72.8239	172.89	-8.26446	-89.685	182.669	30.4993	-35.4227	189.275	10.6811	-58.3635	192.548	-16.6112	-66.5681	201.558	17.7222	-7.02192	209.889	-4.18918	-16.8756	212.405	-24.7584	-26.1051	178.005	60.2027	6.66992	175.369	80.3658	36.2249	139.981	75.3575	16.6099	
244	2.03333	109.443	57.5838	40.4673	94.946	25.511	31.2704	83.3139	1.19265	17.4289	78.8536	-22.2217	11.0129	127.88	40.0596	-42.6672	125.248	25.4973	-69.5316	124.517	-2.13954	-85.0095	159.133	42.2655	-45.876	168.413	25.0649	-74.108	171.443	-4.79052	-92.8705	184.741	34.3096	-36.5388	192.825	15.0047	-58.6228	191.676	-16.602	-70.3783	203.614	19.6511	-7.87235	208.341	-1.37336	-19.5067	211.189	-27.8224	-30.5379	174.566	65.1073	8.49363	175.824	81.0505	37.8162	139.854	74.8019	14.3595	
245	2.04167	109.971	58.4204	39.2049	94.6974	26.8206	28.3162	85.8467	6.4058	16.102	83.1881	-19.2342	5.94267	127.247	45.7232	-41.7721	122.969	34.1855	-69.0735	125.878	4.51635	-87.9424	162.856	47.3817	-49.0351	167.41	32.7468	-76.0825	170.702	7.10298	-96.139	186.164	38.8071	-37.4029	189.492	19.2269	-64.0432	191.897	-6.92117	-72.0303	205.16	19.48	-12.4294	207.147	1.51733	-23.3341	206.05	-22.5864	-36.6192	176.136	63.8854	5.45521	175.634	82.6735	38.6385	140.065	77.0481	18.1021	
246	2.05	107.79	58.8377	35.6289	93.0662	28.3728	24.6597	86.4982	7.88184	10.8685	84.85	-16.9124	-2.68139	127.238	51.9894	-44.3178	123.222	41.0265	-75.3995	124.182	17.7646	-91.596	162.582	53.889	-52.3965	168.863	40.452	-80.6923	168.126	12.7964	-102.415	180.096	45.4081	-41.503	190.485	26.623	-68.3351	190.499	-1.00735	-77.6328	201.737	25.2639	-16.2095	206.234	8.16883	-28.3436	202.908	-20.5479	-43.9851	179.125	67.7998	5.74864	177.559	82.915	38.258	139.649	79.8456	18.0595	
247	2.05833	106.655	60.0829	33.7598	91.6273	30.2208	21.2732	84.0398	9.3903	5.836	80.9256	-14.5828	-7.22055	124.173	59.6278	-46.415	122.834	48.801	-78.0875	119.803	23.504	-96.5248	159.329	60.8528	-53.4067	165.426	49.4889	-84.6368	166.353	23.921	-105.449	184.02	51.1356	-46.5576	190.808	33.821	-70.828	187.725	5.51191	-83.0147	204.494	28.5604	-20.9696	204.798	10.3212	-35.79	201.159	-15.1717	-46.3242	177.808	69.8075	8.50864	173.949	82.8658	36.9034	140.191	82.7749	14.5491	
248	2.06667	109.561	60.1987	32.4746	93.4405	32.4294	20.8971	84.333	11.2209	1.19199	81.6888	-13.3971	-11.4971	125.434	63.9507	-49.1978	125.895	55.7557	-78.4046	123.11	31.1907	-97.4794	163.733	65.8115	-56.3721	165.04	56.1937	-86.8028	166.755	29.1664	-107.742	181.735	55.1241	-45.3604	186.985	42.3562	-73.1892	185.212	10.3344	-86.0927	202.943	32.9245	-23.1377	204.525	12.9398	-39.1825	197.08	-14.8933	-51.6731	178.012	72.2033	6.25948	180.39	84.2672	37.7384	143.85	81.9552	15.1815	
249	2.075	111.805	62.0511	32.0249	93.6366	31.8416	15.3028	86.1628	13.0456	0.243047	84.0933	-13.0142	-15.9051	127.375	66.6001	-51.8874	123.209	58.5102	-80.3067	122.964	33.7545	-98.1096	163.83	68.8496	-57.2192	164.898	60.2077	-86.791	167.724	29.2417	-109.052	182.631	57.6924	-49.3628	188.459	41.9489	-75.7518	184.475	12.457	-86.5413	200.116	34.2982	-27.0206	207.101	13.3397	-39.3547	191.381	-12.9383	-51.8064	175.284	73.4812	4.64019	177.318	84.1657	38.9076	146.567	84.9031	15.9976	
